<svg xmlns="http://www.w3.org/2000/svg" viewBox="0 0 1024 1024">
  <g transform="translate(512 512) scale(1.2) translate(-512 -512)"  fill="#090711">
    <path d="M 512.00 192.00 C 508.31 192.00 489.43 193.61 485.79 194.19 C 482.14 194.77 463.65 199.18 460.12 200.29 C 456.58 201.40 438.86 208.33 435.55 209.97 C 432.24 211.62 415.97 221.48 412.98 223.66 C 409.99 225.84 395.60 238.29 393.04 240.96 C 390.49 243.63 378.63 258.54 376.58 261.62 C 374.53 264.70 365.31 281.41 363.87 284.74 C 362.42 288.07 356.00 309.00 356.00 309.00 C 356.00 309.00 377.09 306.88 380.66 306.45 C 384.23 306.03 403.10 303.44 406.78 303.00 C 410.46 302.56 429.26 300.48 432.95 300.16 C 436.63 299.83 455.52 298.54 459.22 298.31 C 462.92 298.09 481.84 297.09 485.55 297.00 C 489.26 296.91 508.28 297.00 512.00 297.00 C 515.72 297.00 534.74 296.91 538.45 297.00 C 542.16 297.09 561.08 298.09 564.78 298.31 C 568.48 298.54 587.37 299.83 591.05 300.16 C 594.74 300.48 613.54 302.56 617.22 303.00 C 620.90 303.44 639.77 306.03 643.34 306.45 C 646.91 306.88 668.00 309.00 668.00 309.00 C 668.00 309.00 661.58 288.07 660.13 284.74 C 658.69 281.41 649.47 264.70 647.42 261.62 C 645.37 258.54 633.51 243.63 630.96 240.96 C 628.40 238.29 614.01 225.84 611.02 223.66 C 608.03 221.48 591.76 211.62 588.45 209.97 C 585.14 208.33 567.42 201.40 563.88 200.29 C 560.35 199.18 541.86 194.77 538.21 194.19 C 534.57 193.61 515.69 192.00 512.00 192.00 Z" />
    <path d="M 512.00 326.00 C 509.43 326.00 496.29 326.90 493.71 326.97 C 491.14 327.04 477.95 326.93 475.37 327.00 C 472.80 327.07 459.65 327.83 457.08 328.01 C 454.51 328.18 441.39 329.23 438.82 329.45 C 436.25 329.67 423.13 330.86 420.57 331.12 C 418.00 331.38 404.91 332.80 402.35 333.12 C 399.79 333.43 386.72 335.18 384.17 335.55 C 381.62 335.93 368.60 337.97 366.06 338.41 C 363.52 338.85 350.56 341.27 348.03 341.80 C 345.51 342.32 332.65 345.23 330.14 345.84 C 327.64 346.45 314.87 349.75 312.40 350.47 C 309.92 351.18 297.36 355.19 294.92 356.03 C 292.48 356.87 280.11 361.40 277.73 362.40 C 275.36 363.39 263.39 368.96 261.13 370.18 C 258.87 371.41 247.51 378.19 245.56 379.81 C 243.60 381.43 234.22 391.03 233.30 393.22 C 232.38 395.42 231.76 408.75 232.49 411.01 C 233.21 413.27 241.77 423.64 243.62 425.37 C 245.47 427.10 256.58 434.31 258.80 435.61 C 261.02 436.90 272.84 442.75 275.19 443.80 C 277.54 444.85 289.83 449.63 292.25 450.52 C 294.67 451.41 307.14 455.69 309.60 456.46 C 312.06 457.23 324.76 460.78 327.25 461.43 C 329.75 462.09 342.55 465.25 345.06 465.80 C 347.58 466.35 360.54 468.80 363.08 469.25 C 365.61 469.71 378.29 472.01 381.17 472.27 C 384.05 472.53 404.00 473.00 404.00 473.00 C 404.00 473.00 407.21 462.70 407.83 460.59 C 408.44 458.48 411.66 445.21 412.74 442.93 C 413.83 440.64 421.39 429.77 423.26 428.13 C 425.13 426.49 437.00 420.46 439.39 419.57 C 441.78 418.67 454.71 415.85 457.24 415.40 C 459.77 414.94 472.86 413.30 475.43 413.07 C 477.99 412.83 491.14 412.14 493.71 412.00 C 496.28 411.85 509.43 411.00 512.00 411.00 C 514.57 411.00 527.72 411.85 530.29 412.00 C 532.86 412.14 546.01 412.83 548.57 413.07 C 551.14 413.30 564.23 414.94 566.76 415.40 C 569.29 415.85 582.22 418.67 584.61 419.57 C 587.00 420.46 598.87 426.49 600.74 428.13 C 602.61 429.77 610.17 440.64 611.26 442.93 C 612.34 445.21 615.56 458.48 616.17 460.59 C 616.79 462.70 620.00 473.00 620.00 473.00 C 620.00 473.00 639.95 472.53 642.83 472.27 C 645.71 472.01 658.39 469.71 660.92 469.25 C 663.46 468.80 676.42 466.35 678.94 465.80 C 681.45 465.25 694.25 462.09 696.75 461.43 C 699.24 460.78 711.94 457.23 714.40 456.46 C 716.86 455.69 729.33 451.41 731.75 450.52 C 734.17 449.63 746.46 444.85 748.81 443.80 C 751.16 442.75 762.98 436.90 765.20 435.61 C 767.42 434.31 778.53 427.10 780.38 425.37 C 782.23 423.64 790.79 413.27 791.51 411.01 C 792.24 408.75 791.62 395.42 790.70 393.22 C 789.78 391.03 780.40 381.43 778.44 379.81 C 776.49 378.19 765.13 371.41 762.87 370.18 C 760.61 368.96 748.64 363.39 746.27 362.40 C 743.89 361.40 731.52 356.87 729.08 356.03 C 726.64 355.19 714.08 351.18 711.60 350.47 C 709.13 349.75 696.36 346.45 693.86 345.84 C 691.35 345.23 678.49 342.32 675.97 341.80 C 673.44 341.27 660.48 338.85 657.94 338.41 C 655.40 337.97 642.38 335.93 639.83 335.55 C 637.28 335.18 624.21 333.43 621.65 333.12 C 619.09 332.80 606.00 331.38 603.43 331.12 C 600.87 330.86 587.75 329.67 585.18 329.45 C 582.61 329.23 569.49 328.18 566.92 328.01 C 564.35 327.83 551.20 327.07 548.63 327.00 C 546.05 326.93 532.86 327.04 530.29 326.97 C 527.71 326.90 514.57 326.00 512.00 326.00 Z" />
    <path d="M 512.00 441.00 C 508.72 441.00 491.97 441.26 488.71 441.47 C 485.44 441.68 468.75 443.41 465.54 443.96 C 462.32 444.51 445.21 447.42 442.99 449.25 C 440.76 451.07 434.94 466.88 433.89 469.92 C 432.84 472.96 428.82 489.31 428.01 492.49 C 427.20 495.66 423.15 511.92 422.35 515.10 C 421.55 518.28 417.48 534.54 416.69 537.73 C 415.91 540.91 411.91 557.19 411.13 560.37 C 410.35 563.56 406.40 579.84 405.62 583.03 C 404.83 586.21 400.74 602.47 399.96 605.65 C 399.18 608.83 395.28 625.13 394.50 628.32 C 393.73 631.50 389.66 647.77 388.89 650.95 C 388.11 654.14 384.25 670.44 383.47 673.63 C 382.69 676.81 378.61 693.07 377.81 696.25 C 377.02 699.43 372.94 715.69 372.16 718.88 C 371.38 722.06 367.47 738.36 366.70 741.54 C 365.93 744.73 361.92 761.00 361.17 764.19 C 360.42 767.38 356.31 783.72 356.02 786.93 C 355.73 790.15 355.91 807.14 357.09 809.92 C 358.27 812.71 370.11 825.08 372.81 826.56 C 375.50 828.04 392.23 830.76 395.46 831.00 C 398.69 831.24 415.45 830.07 418.72 830.00 C 422.00 829.93 438.76 830.00 442.04 830.00 C 445.32 830.00 462.08 830.00 465.36 830.00 C 468.64 830.00 485.40 830.00 488.68 830.00 C 491.96 830.00 508.72 830.00 512.00 830.00 C 515.28 830.00 532.04 830.00 535.32 830.00 C 538.60 830.00 555.36 830.00 558.64 830.00 C 561.92 830.00 578.68 830.00 581.96 830.00 C 585.24 830.00 602.00 829.93 605.28 830.00 C 608.55 830.07 625.31 831.24 628.54 831.00 C 631.77 830.76 648.50 828.04 651.19 826.56 C 653.89 825.08 665.73 812.71 666.91 809.92 C 668.09 807.14 668.27 790.15 667.98 786.93 C 667.69 783.72 663.58 767.38 662.83 764.19 C 662.08 761.00 658.07 744.73 657.30 741.54 C 656.53 738.36 652.62 722.06 651.84 718.88 C 651.06 715.69 646.98 699.43 646.19 696.25 C 645.39 693.07 641.31 676.81 640.53 673.63 C 639.75 670.44 635.89 654.14 635.11 650.95 C 634.34 647.77 630.27 631.50 629.50 628.32 C 628.72 625.13 624.82 608.83 624.04 605.65 C 623.26 602.47 619.17 586.21 618.38 583.03 C 617.60 579.84 613.65 563.56 612.87 560.37 C 612.09 557.19 608.09 540.91 607.31 537.73 C 606.52 534.54 602.45 518.28 601.65 515.10 C 600.85 511.92 596.80 495.66 595.99 492.49 C 595.18 489.31 591.16 472.96 590.11 469.92 C 589.06 466.88 583.24 451.07 581.01 449.25 C 578.79 447.42 561.68 444.51 558.46 443.96 C 555.25 443.41 538.56 441.68 535.29 441.47 C 532.03 441.26 515.28 441.00 512.00 441.00 Z" />
  </g>
</svg>
